<svg width="277" height="182" viewBox="0 0 277 182" fill="none" xmlns="http://www.w3.org/2000/svg">
<circle cx="141.5" cy="50.5" r="44.5" fill="#E7F3FF"/>
<circle cx="135.5" cy="44.5" r="43.5" stroke="#023247" stroke-width="2"/>
<path d="M40.2745 123H42.5965V112.416L42.1825 110.904H42.7765L45.4585 123H49.9945L52.6585 110.904H53.2705L52.8385 112.416V123H55.1605V110.31H50.5705L48.0145 122.406H47.4205L44.8645 110.31H40.2745V123ZM56.5961 118.482C56.5961 121.434 58.7021 123.18 61.5641 123.18C64.4081 123.18 66.5141 121.434 66.5141 118.482C66.5141 115.53 64.4081 113.784 61.5641 113.784C58.7021 113.784 56.5961 115.53 56.5961 118.482ZM58.9181 118.482C58.9181 116.826 59.9081 115.8 61.5641 115.8C63.2201 115.8 64.2101 116.826 64.2101 118.482C64.2101 120.138 63.2201 121.164 61.5641 121.164C59.9081 121.164 58.9181 120.138 58.9181 118.482ZM77.8931 123V109.77H75.5711V114.828L76.0031 116.214H75.3911C74.9591 114.918 73.9691 113.784 71.7911 113.784C69.1811 113.784 67.7231 115.872 67.7231 118.482C67.7231 121.092 69.1811 123.18 71.7911 123.18C73.9691 123.18 74.9591 122.046 75.3911 120.768H76.0031L75.5711 122.136V123H77.8931ZM75.5711 118.482C75.5711 120.354 74.4551 121.164 72.7811 121.164C71.1071 121.164 70.0451 120.354 70.0451 118.482C70.0451 116.61 71.1071 115.8 72.7811 115.8C74.4551 115.8 75.5711 116.61 75.5711 118.482ZM79.395 118.374C79.395 120.948 80.907 123.18 84.273 123.18C87.297 123.18 88.629 121.164 88.881 119.832H86.559C86.325 120.786 85.479 121.29 84.273 121.29C82.401 121.29 81.627 120.264 81.591 118.95H88.557V118.194C88.557 115.44 86.703 113.784 84.003 113.784C81.303 113.784 79.395 115.494 79.395 118.374ZM81.591 117.546C81.591 116.556 82.347 115.692 84.003 115.692C85.677 115.692 86.361 116.556 86.361 117.546H81.591ZM90.4425 123H92.7645V115.854L97.4265 115.98V113.964L91.8645 113.82C90.9465 113.784 90.4425 114.288 90.4425 115.206V123ZM103.923 115.8C105.363 115.8 105.957 116.466 105.957 118.212V123H108.261V117.87C108.261 115.188 106.893 113.784 104.697 113.784C102.753 113.784 101.619 115.008 101.259 116.628H100.665L101.079 115.242V113.964H98.7569V123H101.079V119.4C101.079 116.898 102.231 115.8 103.923 115.8ZM126.138 110.31H115.32V112.326H119.586V123H121.908V112.326H126.138V110.31ZM124.536 118.374C124.536 120.948 126.048 123.18 129.414 123.18C132.438 123.18 133.77 121.164 134.022 119.832H131.7C131.466 120.786 130.62 121.29 129.414 121.29C127.542 121.29 126.768 120.264 126.732 118.95H133.698V118.194C133.698 115.44 131.844 113.784 129.144 113.784C126.444 113.784 124.536 115.494 124.536 118.374ZM126.732 117.546C126.732 116.556 127.488 115.692 129.144 115.692C130.818 115.692 131.502 116.556 131.502 117.546H126.732ZM135.223 118.482C135.223 121.344 137.131 123.18 140.029 123.18C142.225 123.18 144.457 121.974 144.637 119.382H142.315C142.135 120.552 141.253 121.164 140.029 121.164C138.373 121.164 137.545 120.066 137.545 118.482C137.545 116.916 138.373 115.8 140.029 115.8C141.253 115.8 142.135 116.412 142.315 117.582H144.637C144.457 114.99 142.225 113.784 140.029 113.784C137.131 113.784 135.223 115.638 135.223 118.482ZM152.07 113.784C150.126 113.784 148.992 115.008 148.632 116.628H148.038L148.452 115.242V109.77H146.13V123H148.452V119.4C148.452 116.898 149.604 115.8 151.296 115.8C152.736 115.8 153.33 116.466 153.33 118.212V123H155.634V117.87C155.634 115.188 154.266 113.784 152.07 113.784ZM162.757 115.8C164.197 115.8 164.791 116.466 164.791 118.212V123H167.095V117.87C167.095 115.188 165.727 113.784 163.531 113.784C161.587 113.784 160.453 115.008 160.093 116.628H159.499L159.913 115.242V113.964H157.591V123H159.913V119.4C159.913 116.898 161.065 115.8 162.757 115.8ZM168.569 118.482C168.569 121.434 170.675 123.18 173.537 123.18C176.381 123.18 178.487 121.434 178.487 118.482C178.487 115.53 176.381 113.784 173.537 113.784C170.675 113.784 168.569 115.53 168.569 118.482ZM170.891 118.482C170.891 116.826 171.881 115.8 173.537 115.8C175.193 115.8 176.183 116.826 176.183 118.482C176.183 120.138 175.193 121.164 173.537 121.164C171.881 121.164 170.891 120.138 170.891 118.482ZM179.27 123H186.614V120.984H184.112V111.03C184.112 110.076 183.608 109.572 182.672 109.626L179.756 109.77V111.786L181.79 111.66V120.984H179.27V123ZM187.342 118.482C187.342 121.434 189.448 123.18 192.31 123.18C195.154 123.18 197.26 121.434 197.26 118.482C197.26 115.53 195.154 113.784 192.31 113.784C189.448 113.784 187.342 115.53 187.342 118.482ZM189.664 118.482C189.664 116.826 190.654 115.8 192.31 115.8C193.966 115.8 194.956 116.826 194.956 118.482C194.956 120.138 193.966 121.164 192.31 121.164C190.654 121.164 189.664 120.138 189.664 118.482ZM208.664 113.964C207.854 113.964 207.17 114.054 206.468 114.72C205.55 114.054 204.344 113.784 203.084 113.784C200.348 113.784 198.17 114.936 198.17 117.366C198.17 120.264 201.284 120.93 204.434 119.922V120.516C202.886 120.93 201.194 121.218 199.376 121.506L199.682 122.892C202.238 122.352 205.784 121.614 205.784 123.198C205.784 124.35 204.38 124.458 198.782 124.458V126.474C205.244 126.474 208.106 126.168 208.106 123.612C208.106 121.668 206.144 121.236 204.074 121.416C206.63 120.516 208.214 119.4 208.214 117.6C208.214 117.006 208.034 116.502 207.818 116.232C208.106 116.034 208.43 115.98 208.79 115.98H209.456V113.964H208.664ZM203.21 119.166C201.41 119.166 200.492 118.644 200.492 117.492C200.492 116.34 201.41 115.8 203.21 115.8C204.992 115.8 205.892 116.34 205.892 117.492C205.892 118.644 204.992 119.166 203.21 119.166ZM213.878 112.866C214.796 112.866 215.426 112.344 215.426 111.498C215.426 110.67 214.796 110.13 213.878 110.13C212.942 110.13 212.348 110.67 212.348 111.498C212.348 112.344 212.942 112.866 213.878 112.866ZM210.44 123H217.766V120.984H215.21V115.134C215.21 114.252 214.742 113.73 213.806 113.784L210.926 113.964V115.98L212.996 115.854V120.984H210.44V123ZM218.473 118.374C218.473 120.948 219.985 123.18 223.351 123.18C226.375 123.18 227.707 121.164 227.959 119.832H225.637C225.403 120.786 224.557 121.29 223.351 121.29C221.479 121.29 220.705 120.264 220.669 118.95H227.635V118.194C227.635 115.44 225.781 113.784 223.081 113.784C220.381 113.784 218.473 115.494 218.473 118.374ZM220.669 117.546C220.669 116.556 221.425 115.692 223.081 115.692C224.755 115.692 225.439 116.556 225.439 117.546H220.669ZM237.441 120.57C237.441 118.662 235.713 118.23 233.949 117.654C232.509 117.186 231.717 116.916 231.717 116.322C231.717 115.782 232.257 115.566 233.067 115.566C234.237 115.566 234.813 116.088 234.813 116.97H237.135C237.135 115.314 236.037 113.784 233.085 113.784C230.763 113.784 229.395 114.72 229.395 116.268C229.395 118.14 231.195 118.608 232.887 119.166C234.345 119.634 235.119 119.796 235.119 120.534C235.119 121.164 234.579 121.398 233.553 121.398C231.951 121.398 231.303 120.75 231.303 119.706H228.981C228.981 121.83 230.331 123.18 233.499 123.18C236.451 123.18 237.441 122.028 237.441 120.57Z" fill="black"/>
<path d="M8.86581 142.72L5.71381 148.224V149.136H5.34581V148.224L2.19381 142.72H0.785812L4.88181 149.792V154H6.17781V149.792L10.2738 142.72H8.86581ZM9.37144 150.016C9.37144 152.336 11.0354 154.16 13.5794 154.16C16.1074 154.16 17.7554 152.336 17.7554 150.016C17.7554 147.712 16.1074 145.888 13.5794 145.888C11.0354 145.888 9.37144 147.712 9.37144 150.016ZM10.6834 150.016C10.6834 148.368 11.6914 147.008 13.5794 147.008C15.4514 147.008 16.4594 148.368 16.4594 150.016C16.4594 151.68 15.4514 153.04 13.5794 153.04C11.6914 153.04 10.6834 151.68 10.6834 150.016ZM22.7501 153.04C21.3741 153.04 20.7341 152.4 20.7341 150.736V146.048H19.4221V150.912C19.4221 153.12 20.5901 154.16 22.3981 154.16C24.1261 154.16 25.1341 153.152 25.4541 151.712H25.8221L25.6141 152.624V154H26.9101V146.048H25.6141V149.584C25.6141 151.712 24.4301 153.04 22.7501 153.04ZM33.6102 146.048L35.6262 154H38.3142L39.9302 146.432H40.3142L41.9302 154H44.6022L46.6182 146.048H45.3862L43.4502 153.632H43.0822L41.4662 146.048H38.7622L37.1622 153.632H36.7782L34.8582 146.048H33.6102ZM50.2306 144.784C50.8706 144.784 51.3826 144.304 51.3826 143.664C51.3826 143.056 50.8706 142.56 50.2306 142.56C49.5746 142.56 49.0786 143.056 49.0786 143.664C49.0786 144.304 49.5746 144.784 50.2306 144.784ZM47.5746 154H53.2866V152.88H51.0466V146.848C51.0466 146.24 50.7586 145.824 50.0066 145.888L48.1666 146.048V147.168L49.8146 147.024V152.88H47.5746V154ZM54.5083 154H60.2683V152.88H58.0443V143.184C58.0443 142.432 57.6923 142.016 56.9563 142.08L55.1003 142.24V143.36L56.7483 143.216V152.88H54.5083V154ZM61.4927 154H67.2527V152.88H65.0287V143.184C65.0287 142.432 64.6767 142.016 63.9407 142.08L62.0847 142.24V143.36L63.7327 143.216V152.88H61.4927V154ZM73.7896 154H79.5496V152.88H77.3256V143.184C77.3256 142.432 76.9736 142.016 76.2376 142.08L74.3816 142.24V143.36L76.0296 143.216V152.88H73.7896V154ZM80.4496 149.92C80.4496 152.208 81.6496 154.16 84.4976 154.16C87.0256 154.16 87.9856 152.448 88.2896 151.216H86.9776C86.6896 152.432 85.8096 153.072 84.4976 153.072C82.5296 153.072 81.8096 151.776 81.7296 150.272H88.0176V149.76C88.0176 147.312 86.5456 145.888 84.3056 145.888C82.0496 145.888 80.4496 147.36 80.4496 149.92ZM81.7296 149.28C81.7296 148 82.7376 146.992 84.3056 146.992C85.8896 146.992 86.7376 148 86.7376 149.28H81.7296ZM89.9027 151.792C89.9027 152.624 90.2547 154.16 92.5587 154.16C94.4787 154.16 95.3267 153.024 95.6307 151.808H96.0147L95.8067 152.64V153.072C95.8067 153.664 96.1427 154 96.7507 154H98.1587V152.88H96.9907V149.488C96.9907 147.36 95.6627 145.888 93.4387 145.888C91.1827 145.888 89.9347 147.36 89.9347 149.008H91.2147C91.2147 147.504 92.2867 146.992 93.4387 146.992C94.8147 146.992 95.5987 147.712 95.6787 149.168L92.5107 149.472C90.6547 149.664 89.9027 150.528 89.9027 151.792ZM91.2147 151.632C91.2147 150.848 91.7267 150.544 92.7347 150.448L95.6787 150.144C95.6787 151.792 94.5267 153.04 92.7187 153.04C91.7907 153.04 91.2147 152.544 91.2147 151.632ZM99.6602 154H100.972V147.024L105.18 147.168V146.048L100.764 145.904C100.012 145.872 99.6602 146.24 99.6602 146.992V154ZM110.867 147.008C112.227 147.008 112.883 147.648 112.883 149.312V154H114.179V149.136C114.179 146.928 113.011 145.888 111.219 145.888C109.491 145.888 108.483 146.896 108.163 148.336H107.795L108.003 147.424V146.048H106.691V154H108.003V150.48C108.003 148.336 109.187 147.008 110.867 147.008ZM121.211 154H126.971V152.88H124.747V143.184C124.747 142.432 124.395 142.016 123.659 142.08L121.803 142.24V143.36L123.451 143.216V152.88H121.211V154ZM128.325 151.792C128.325 152.624 128.677 154.16 130.981 154.16C132.901 154.16 133.749 153.024 134.053 151.808H134.437L134.229 152.64V153.072C134.229 153.664 134.565 154 135.173 154H136.581V152.88H135.413V149.488C135.413 147.36 134.085 145.888 131.861 145.888C129.605 145.888 128.357 147.36 128.357 149.008H129.637C129.637 147.504 130.709 146.992 131.861 146.992C133.237 146.992 134.021 147.712 134.101 149.168L130.933 149.472C129.077 149.664 128.325 150.528 128.325 151.792ZM129.637 151.632C129.637 150.848 130.149 150.544 131.157 150.448L134.101 150.144C134.101 151.792 132.949 153.04 131.141 153.04C130.213 153.04 129.637 152.544 129.637 151.632ZM139.854 153.056V147.168H142.334V146.048H139.854V143.6L138.558 144V146.048H136.798V147.168H138.558V153.072C138.558 153.808 138.894 154.208 139.646 154.16L142.654 154V152.88L139.854 153.056ZM143.715 149.92C143.715 152.208 144.915 154.16 147.763 154.16C150.291 154.16 151.251 152.448 151.555 151.216H150.243C149.955 152.432 149.075 153.072 147.763 153.072C145.795 153.072 145.075 151.776 144.995 150.272H151.283V149.76C151.283 147.312 149.811 145.888 147.571 145.888C145.315 145.888 143.715 147.36 143.715 149.92ZM144.995 149.28C144.995 148 146.003 146.992 147.571 146.992C149.155 146.992 150.003 148 150.003 149.28H144.995ZM159.651 151.936C159.651 150.224 157.955 149.872 156.387 149.36C155.107 148.944 154.563 148.704 154.563 147.936C154.563 147.216 155.267 146.96 156.147 146.96C157.411 146.96 158.067 147.488 158.067 148.56H159.379C159.379 147.248 158.627 145.888 156.147 145.888C154.323 145.888 153.251 146.72 153.251 147.984C153.251 149.424 154.467 149.888 155.971 150.368C157.267 150.768 158.339 150.944 158.339 151.984C158.339 152.8 157.763 153.088 156.531 153.088C154.995 153.088 154.195 152.448 154.195 151.072H152.883C152.883 152.96 153.939 154.16 156.515 154.16C158.899 154.16 159.651 153.136 159.651 151.936ZM163.572 153.056V147.168H166.052V146.048H163.572V143.6L162.276 144V146.048H160.516V147.168H162.276V153.072C162.276 153.808 162.612 154.208 163.364 154.16L166.372 154V152.88L163.572 153.056ZM175.807 153.056V147.168H178.287V146.048H175.807V143.6L174.511 144V146.048H172.751V147.168H174.511V153.072C174.511 153.808 174.847 154.208 175.599 154.16L178.607 154V152.88L175.807 153.056ZM179.668 149.92C179.668 152.208 180.868 154.16 183.716 154.16C186.244 154.16 187.204 152.448 187.508 151.216H186.196C185.908 152.432 185.028 153.072 183.716 153.072C181.748 153.072 181.028 151.776 180.948 150.272H187.236V149.76C187.236 147.312 185.764 145.888 183.524 145.888C181.268 145.888 179.668 147.36 179.668 149.92ZM180.948 149.28C180.948 148 181.956 146.992 183.524 146.992C185.108 146.992 185.956 148 185.956 149.28H180.948ZM188.996 150.016C188.996 152.32 190.484 154.16 193.06 154.16C194.596 154.16 196.564 153.296 196.772 150.992H195.444C195.22 152.512 194.212 153.04 193.06 153.04C191.172 153.04 190.308 151.664 190.308 150.016C190.308 148.384 191.172 147.008 193.06 147.008C194.212 147.008 195.22 147.536 195.444 149.056H196.772C196.564 146.752 194.596 145.888 193.06 145.888C190.484 145.888 188.996 147.728 188.996 150.016ZM203.204 145.888C201.476 145.888 200.468 146.896 200.148 148.336H199.78L199.988 147.424V142.24H198.676V154H199.988V150.48C199.988 148.336 201.172 147.008 202.852 147.008C204.212 147.008 204.868 147.648 204.868 149.312V154H206.164V149.136C206.164 146.928 204.996 145.888 203.204 145.888ZM212.492 147.008C213.852 147.008 214.508 147.648 214.508 149.312V154H215.804V149.136C215.804 146.928 214.636 145.888 212.844 145.888C211.116 145.888 210.108 146.896 209.788 148.336H209.42L209.628 147.424V146.048H208.316V154H209.628V150.48C209.628 148.336 210.812 147.008 212.492 147.008ZM217.606 150.016C217.606 152.336 219.27 154.16 221.814 154.16C224.342 154.16 225.99 152.336 225.99 150.016C225.99 147.712 224.342 145.888 221.814 145.888C219.27 145.888 217.606 147.712 217.606 150.016ZM218.918 150.016C218.918 148.368 219.926 147.008 221.814 147.008C223.686 147.008 224.694 148.368 224.694 150.016C224.694 151.68 223.686 153.04 221.814 153.04C219.926 153.04 218.918 151.68 218.918 150.016ZM226.79 154H232.55V152.88H230.326V143.184C230.326 142.432 229.974 142.016 229.238 142.08L227.382 142.24V143.36L229.03 143.216V152.88H226.79V154ZM233.45 150.016C233.45 152.336 235.114 154.16 237.658 154.16C240.186 154.16 241.834 152.336 241.834 150.016C241.834 147.712 240.186 145.888 237.658 145.888C235.114 145.888 233.45 147.712 233.45 150.016ZM234.762 150.016C234.762 148.368 235.77 147.008 237.658 147.008C239.53 147.008 240.538 148.368 240.538 150.016C240.538 151.68 239.53 153.04 237.658 153.04C235.77 153.04 234.762 151.68 234.762 150.016ZM251.777 146.048C251.057 146.048 250.753 146.128 249.921 146.656C249.169 146.128 248.177 145.888 247.217 145.888C244.929 145.888 243.137 146.912 243.137 149.104C243.137 151.568 245.377 152.4 247.937 151.744V152.112C246.705 152.496 245.441 152.864 244.161 153.216L244.433 154.128C246.401 153.536 249.905 152.688 249.905 154.448C249.905 155.696 248.273 155.808 243.713 155.808V156.928C249.041 156.928 251.217 156.656 251.217 154.544C251.217 152.784 249.425 152.528 247.569 152.832C249.969 151.952 251.313 150.88 251.313 149.168C251.313 148.48 251.105 147.904 250.769 147.488C251.073 147.264 251.361 147.168 251.809 147.168H252.481V146.048H251.777ZM247.233 151.28C245.569 151.28 244.449 150.688 244.449 149.136C244.449 147.6 245.569 147.008 247.233 147.008C248.913 147.008 250.001 147.6 250.001 149.136C250.001 150.688 248.913 151.28 247.233 151.28ZM256.324 144.784C256.964 144.784 257.476 144.304 257.476 143.664C257.476 143.056 256.964 142.56 256.324 142.56C255.668 142.56 255.172 143.056 255.172 143.664C255.172 144.304 255.668 144.784 256.324 144.784ZM253.668 154H259.38V152.88H257.14V146.848C257.14 146.24 256.852 145.824 256.1 145.888L254.26 146.048V147.168L255.908 147.024V152.88H253.668V154ZM260.278 149.92C260.278 152.208 261.478 154.16 264.326 154.16C266.854 154.16 267.814 152.448 268.118 151.216H266.806C266.518 152.432 265.638 153.072 264.326 153.072C262.358 153.072 261.638 151.776 261.558 150.272H267.846V149.76C267.846 147.312 266.374 145.888 264.134 145.888C261.878 145.888 260.278 147.36 260.278 149.92ZM261.558 149.28C261.558 148 262.566 146.992 264.134 146.992C265.718 146.992 266.566 148 266.566 149.28H261.558ZM276.214 151.936C276.214 150.224 274.518 149.872 272.95 149.36C271.67 148.944 271.126 148.704 271.126 147.936C271.126 147.216 271.83 146.96 272.71 146.96C273.974 146.96 274.63 147.488 274.63 148.56H275.942C275.942 147.248 275.19 145.888 272.71 145.888C270.886 145.888 269.814 146.72 269.814 147.984C269.814 149.424 271.03 149.888 272.534 150.368C273.83 150.768 274.902 150.944 274.902 151.984C274.902 152.8 274.326 153.088 273.094 153.088C271.558 153.088 270.758 152.448 270.758 151.072H269.446C269.446 152.96 270.502 154.16 273.078 154.16C275.462 154.16 276.214 153.136 276.214 151.936ZM21.3477 179H22.6597V172.024L26.8677 172.168V171.048L22.4517 170.904C21.6997 170.872 21.3477 171.24 21.3477 171.992V179ZM27.5277 174.92C27.5277 177.208 28.7277 179.16 31.5757 179.16C34.1037 179.16 35.0637 177.448 35.3677 176.216H34.0557C33.7677 177.432 32.8877 178.072 31.5757 178.072C29.6077 178.072 28.8877 176.776 28.8077 175.272H35.0957V174.76C35.0957 172.312 33.6237 170.888 31.3837 170.888C29.1277 170.888 27.5277 172.36 27.5277 174.92ZM28.8077 174.28C28.8077 173 29.8157 171.992 31.3837 171.992C32.9677 171.992 33.8157 173 33.8157 174.28H28.8077ZM45.2927 171.048C44.5727 171.048 44.2687 171.128 43.4367 171.656C42.6847 171.128 41.6927 170.888 40.7327 170.888C38.4447 170.888 36.6527 171.912 36.6527 174.104C36.6527 176.568 38.8927 177.4 41.4527 176.744V177.112C40.2207 177.496 38.9567 177.864 37.6767 178.216L37.9487 179.128C39.9167 178.536 43.4207 177.688 43.4207 179.448C43.4207 180.696 41.7887 180.808 37.2287 180.808V181.928C42.5567 181.928 44.7327 181.656 44.7327 179.544C44.7327 177.784 42.9407 177.528 41.0847 177.832C43.4847 176.952 44.8287 175.88 44.8287 174.168C44.8287 173.48 44.6207 172.904 44.2847 172.488C44.5887 172.264 44.8767 172.168 45.3247 172.168H45.9967V171.048H45.2927ZM40.7487 176.28C39.0847 176.28 37.9647 175.688 37.9647 174.136C37.9647 172.6 39.0847 172.008 40.7487 172.008C42.4287 172.008 43.5167 172.6 43.5167 174.136C43.5167 175.688 42.4287 176.28 40.7487 176.28ZM46.9027 176.792C46.9027 177.624 47.2547 179.16 49.5587 179.16C51.4787 179.16 52.3267 178.024 52.6307 176.808H53.0147L52.8067 177.64V178.072C52.8067 178.664 53.1427 179 53.7507 179H55.1587V177.88H53.9907V174.488C53.9907 172.36 52.6627 170.888 50.4387 170.888C48.1827 170.888 46.9347 172.36 46.9347 174.008H48.2147C48.2147 172.504 49.2867 171.992 50.4387 171.992C51.8147 171.992 52.5987 172.712 52.6787 174.168L49.5107 174.472C47.6547 174.664 46.9027 175.528 46.9027 176.792ZM48.2147 176.632C48.2147 175.848 48.7267 175.544 49.7347 175.448L52.6787 175.144C52.6787 176.792 51.5267 178.04 49.7187 178.04C48.7907 178.04 48.2147 177.544 48.2147 176.632ZM56.6602 179H57.9722V172.024L62.1802 172.168V171.048L57.7642 170.904C57.0122 170.872 56.6602 171.24 56.6602 171.992V179ZM71.3202 179V167.24H70.0082V172.216L70.2322 173.128H69.8482C69.5122 171.88 68.4402 170.888 66.6322 170.888C64.3282 170.888 62.8402 172.664 62.8402 175.016C62.8402 177.384 64.3282 179.16 66.6322 179.16C68.4402 179.16 69.5122 178.168 69.8482 176.936H70.2322L70.0082 177.832V179H71.3202ZM70.0082 175.016C70.0082 177.144 68.6642 178.04 67.0162 178.04C65.3682 178.04 64.1522 177.144 64.1522 175.016C64.1522 172.904 65.3682 172.008 67.0162 172.008C68.6642 172.008 70.0082 172.904 70.0082 175.016ZM75.8243 169.784C76.4643 169.784 76.9763 169.304 76.9763 168.664C76.9763 168.056 76.4643 167.56 75.8243 167.56C75.1683 167.56 74.6723 168.056 74.6723 168.664C74.6723 169.304 75.1683 169.784 75.8243 169.784ZM73.1683 179H78.8803V177.88H76.6403V171.848C76.6403 171.24 76.3523 170.824 75.6003 170.888L73.7603 171.048V172.168L75.4083 172.024V177.88H73.1683V179ZM84.7112 172.008C86.0712 172.008 86.7272 172.648 86.7272 174.312V179H88.0232V174.136C88.0232 171.928 86.8552 170.888 85.0632 170.888C83.3352 170.888 82.3272 171.896 82.0072 173.336H81.6392L81.8472 172.424V171.048H80.5352V179H81.8472V175.48C81.8472 173.336 83.0312 172.008 84.7112 172.008ZM98.3083 171.048C97.5883 171.048 97.2843 171.128 96.4523 171.656C95.7003 171.128 94.7083 170.888 93.7483 170.888C91.4603 170.888 89.6683 171.912 89.6683 174.104C89.6683 176.568 91.9083 177.4 94.4683 176.744V177.112C93.2363 177.496 91.9723 177.864 90.6923 178.216L90.9643 179.128C92.9323 178.536 96.4363 177.688 96.4363 179.448C96.4363 180.696 94.8043 180.808 90.2443 180.808V181.928C95.5723 181.928 97.7483 181.656 97.7483 179.544C97.7483 177.784 95.9563 177.528 94.1003 177.832C96.5003 176.952 97.8443 175.88 97.8443 174.168C97.8443 173.48 97.6363 172.904 97.3003 172.488C97.6043 172.264 97.8923 172.168 98.3403 172.168H99.0123V171.048H98.3083ZM93.7643 176.28C92.1003 176.28 90.9803 175.688 90.9803 174.136C90.9803 172.6 92.1003 172.008 93.7643 172.008C95.4443 172.008 96.5323 172.6 96.5323 174.136C96.5323 175.688 95.4443 176.28 93.7643 176.28ZM105.063 171.048L107.079 179H109.767L111.383 171.432H111.767L113.383 179H116.055L118.071 171.048H116.839L114.903 178.632H114.535L112.919 171.048H110.215L108.615 178.632H108.231L106.311 171.048H105.063ZM118.95 174.92C118.95 177.208 120.15 179.16 122.998 179.16C125.526 179.16 126.486 177.448 126.79 176.216H125.478C125.19 177.432 124.31 178.072 122.998 178.072C121.03 178.072 120.31 176.776 120.23 175.272H126.518V174.76C126.518 172.312 125.046 170.888 122.806 170.888C120.55 170.888 118.95 172.36 118.95 174.92ZM120.23 174.28C120.23 173 121.238 171.992 122.806 171.992C124.39 171.992 125.238 173 125.238 174.28H120.23ZM128.691 179H130.003V177.832L129.795 176.936H130.163C130.499 178.168 131.571 179.16 133.395 179.16C135.699 179.16 137.171 177.384 137.171 175.016C137.171 172.664 135.699 170.888 133.395 170.888C131.571 170.888 130.499 171.88 130.163 173.128H129.795L130.003 172.216V167.24H128.691V179ZM130.003 175.016C130.003 172.904 131.363 172.008 132.995 172.008C134.643 172.008 135.859 172.904 135.859 175.016C135.859 177.144 134.643 178.04 132.995 178.04C131.363 178.04 130.003 177.144 130.003 175.016ZM144.504 171.048V181.912H145.816V177.832L145.608 176.936H145.976C146.312 178.168 147.368 179.16 149.192 179.16C151.496 179.16 152.984 177.384 152.984 175.032C152.984 172.664 151.496 170.888 149.192 170.888C147.368 170.888 146.312 171.88 145.976 173.128H145.608L145.816 172.216V171.048H144.504ZM145.816 175.032C145.816 172.904 147.176 172.008 148.808 172.008C150.456 172.008 151.672 172.936 151.672 175.032C151.672 177.112 150.456 178.04 148.808 178.04C147.176 178.04 145.816 177.144 145.816 175.032ZM154.801 179H156.113V172.024L160.321 172.168V171.048L155.905 170.904C155.153 170.872 154.801 171.24 154.801 171.992V179ZM160.981 175.016C160.981 177.336 162.645 179.16 165.189 179.16C167.717 179.16 169.365 177.336 169.365 175.016C169.365 172.712 167.717 170.888 165.189 170.888C162.645 170.888 160.981 172.712 160.981 175.016ZM162.293 175.016C162.293 173.368 163.301 172.008 165.189 172.008C167.061 172.008 168.069 173.368 168.069 175.016C168.069 176.68 167.061 178.04 165.189 178.04C163.301 178.04 162.293 176.68 162.293 175.016ZM179.308 171.048C178.588 171.048 178.284 171.128 177.452 171.656C176.7 171.128 175.708 170.888 174.748 170.888C172.46 170.888 170.668 171.912 170.668 174.104C170.668 176.568 172.908 177.4 175.468 176.744V177.112C174.236 177.496 172.972 177.864 171.692 178.216L171.964 179.128C173.932 178.536 177.436 177.688 177.436 179.448C177.436 180.696 175.804 180.808 171.244 180.808V181.928C176.572 181.928 178.748 181.656 178.748 179.544C178.748 177.784 176.956 177.528 175.1 177.832C177.5 176.952 178.844 175.88 178.844 174.168C178.844 173.48 178.636 172.904 178.3 172.488C178.604 172.264 178.892 172.168 179.34 172.168H180.012V171.048H179.308ZM174.764 176.28C173.1 176.28 171.98 175.688 171.98 174.136C171.98 172.6 173.1 172.008 174.764 172.008C176.444 172.008 177.532 172.6 177.532 174.136C177.532 175.688 176.444 176.28 174.764 176.28ZM181.504 179H182.816V172.024L187.024 172.168V171.048L182.608 170.904C181.856 170.872 181.504 171.24 181.504 171.992V179ZM188.2 176.792C188.2 177.624 188.552 179.16 190.856 179.16C192.776 179.16 193.624 178.024 193.928 176.808H194.312L194.104 177.64V178.072C194.104 178.664 194.44 179 195.048 179H196.456V177.88H195.288V174.488C195.288 172.36 193.96 170.888 191.736 170.888C189.48 170.888 188.232 172.36 188.232 174.008H189.512C189.512 172.504 190.584 171.992 191.736 171.992C193.112 171.992 193.896 172.712 193.976 174.168L190.808 174.472C188.952 174.664 188.2 175.528 188.2 176.792ZM189.512 176.632C189.512 175.848 190.024 175.544 191.032 175.448L193.976 175.144C193.976 176.792 192.824 178.04 191.016 178.04C190.088 178.04 189.512 177.544 189.512 176.632ZM207.749 170.888C206.053 170.888 205.221 171.864 204.901 173.304H204.661C204.485 171.88 203.717 170.888 202.277 170.888C200.581 170.888 199.749 171.864 199.429 173.304H199.061L199.269 172.408V171.048H197.957V179H199.269V175.496C199.269 173.416 200.213 172.008 201.797 172.008C203.093 172.008 203.429 172.76 203.429 174.296V179H204.741V175.496C204.741 173.416 205.685 172.008 207.269 172.008C208.565 172.008 208.901 172.76 208.901 174.296V179H210.213V173.992C210.213 172.216 209.413 170.888 207.749 170.888ZM222.14 170.888C220.444 170.888 219.612 171.864 219.292 173.304H219.052C218.876 171.88 218.108 170.888 216.668 170.888C214.972 170.888 214.14 171.864 213.82 173.304H213.452L213.66 172.408V171.048H212.348V179H213.66V175.496C213.66 173.416 214.604 172.008 216.188 172.008C217.484 172.008 217.82 172.76 217.82 174.296V179H219.132V175.496C219.132 173.416 220.076 172.008 221.66 172.008C222.956 172.008 223.292 172.76 223.292 174.296V179H224.604V173.992C224.604 172.216 223.804 170.888 222.14 170.888ZM228.918 169.784C229.558 169.784 230.07 169.304 230.07 168.664C230.07 168.056 229.558 167.56 228.918 167.56C228.262 167.56 227.766 168.056 227.766 168.664C227.766 169.304 228.262 169.784 228.918 169.784ZM226.262 179H231.974V177.88H229.734V171.848C229.734 171.24 229.446 170.824 228.694 170.888L226.854 171.048V172.168L228.502 172.024V177.88H226.262V179ZM237.805 172.008C239.165 172.008 239.821 172.648 239.821 174.312V179H241.117V174.136C241.117 171.928 239.949 170.888 238.157 170.888C236.429 170.888 235.421 171.896 235.101 173.336H234.733L234.941 172.424V171.048H233.629V179H234.941V175.48C234.941 173.336 236.125 172.008 237.805 172.008ZM251.402 171.048C250.682 171.048 250.378 171.128 249.546 171.656C248.794 171.128 247.802 170.888 246.842 170.888C244.554 170.888 242.762 171.912 242.762 174.104C242.762 176.568 245.002 177.4 247.562 176.744V177.112C246.33 177.496 245.066 177.864 243.786 178.216L244.058 179.128C246.026 178.536 249.53 177.688 249.53 179.448C249.53 180.696 247.898 180.808 243.338 180.808V181.928C248.666 181.928 250.842 181.656 250.842 179.544C250.842 177.784 249.05 177.528 247.194 177.832C249.594 176.952 250.938 175.88 250.938 174.168C250.938 173.48 250.73 172.904 250.394 172.488C250.698 172.264 250.986 172.168 251.434 172.168H252.106V171.048H251.402ZM246.858 176.28C245.194 176.28 244.074 175.688 244.074 174.136C244.074 172.6 245.194 172.008 246.858 172.008C248.538 172.008 249.626 172.6 249.626 174.136C249.626 175.688 248.538 176.28 246.858 176.28ZM254.148 179.16C254.884 179.16 255.476 178.584 255.476 177.816C255.476 177.08 254.884 176.504 254.148 176.504C253.396 176.504 252.82 177.08 252.82 177.816C252.82 178.584 253.396 179.16 254.148 179.16Z" fill="#1B1B1B"/>
<path fill-rule="evenodd" clip-rule="evenodd" d="M135.5 24.9574L114.232 37.8372L135.5 50.717L156.768 37.8372L135.5 24.9574ZM135.5 23L111 37.8372L135.5 52.6744L160 37.8372L135.5 23Z" fill="#023247"/>
<path fill-rule="evenodd" clip-rule="evenodd" d="M135.5 57.9059L111.653 43.4651L111 45.0008L135.5 59.8372L160 45.0008L159.347 43.4651L135.5 57.9059Z" fill="#023247"/>
<path fill-rule="evenodd" clip-rule="evenodd" d="M135.5 65.0688L111.653 50.6279L111 52.1637L135.5 67L160 52.1637L159.347 50.6279L135.5 65.0688Z" fill="#023247"/>
</svg>
